<?xml version="1.0" encoding="utf-8"?>
<!-- Generator: Adobe Illustrator 21.0.2, SVG Export Plug-In . SVG Version: 6.00 Build 0)  -->
<svg version="1.1" id="Layer_1" xmlns="http://www.w3.org/2000/svg" xmlns:xlink="http://www.w3.org/1999/xlink" x="0px" y="0px"
	 viewBox="0 0 185 60" style="enable-background:new 0 0 185 60;" xml:space="preserve">
<style type="text/css">
	.st0{fill:#FFFFFF;}
	.st1{fill:#00C0FF;}
	.st2{fill:#222222;}
</style>
<g>
	<path class="st0" d="M59.9,32.5V5.1h12.5c1.3,0,2.5,0.3,3.6,0.8c1.1,0.5,2,1.2,2.8,2c0.8,0.8,1.4,1.8,1.8,2.9
		c0.4,1.1,0.7,2.2,0.7,3.3c0,0.9-0.1,1.8-0.4,2.7c-0.3,0.8-0.6,1.6-1.1,2.3c-0.5,0.7-1.1,1.3-1.8,1.9c-0.7,0.5-1.5,0.9-2.3,1.2
		l6.8,10.4h-5.1L71.1,23h-6.6v9.5H59.9z M64.4,19.1h7.9c0.6,0,1.2-0.1,1.8-0.4s1-0.6,1.4-1.1c0.4-0.5,0.7-1,0.9-1.6
		c0.2-0.6,0.3-1.3,0.3-2s-0.1-1.3-0.4-2c-0.3-0.6-0.6-1.2-1-1.6c-0.4-0.5-0.9-0.8-1.5-1.1c-0.6-0.3-1.1-0.4-1.7-0.4h-7.7V19.1z"/>
	<path class="st0" d="M106.3,28.7v3.8H86.6V5.1H106v3.8H91.2v7.8H104v3.6H91.2v8.4H106.3z"/>
	<path class="st0" d="M112.8,5.1l8.7,21.9l8.6-21.9h4.8l-11.5,27.3h-3.9L108,5.1H112.8z"/>
	<path class="st0" d="M158.1,28.7v3.8h-19.7V5.1h19.3v3.8H143v7.8h12.8v3.6H143v8.4H158.1z"/>
	<path class="st0" d="M162.8,32.5V5.1h4.5v23.5h15.4v3.8H162.8z"/>
</g>
<g>
	<path class="st0" d="M61.1,53.4V42h5c0.5,0,1,0.1,1.4,0.3c0.4,0.2,0.8,0.5,1.1,0.8c0.3,0.3,0.6,0.7,0.7,1.2
		c0.2,0.4,0.3,0.9,0.3,1.4c0,0.4-0.1,0.8-0.2,1.1c-0.1,0.4-0.3,0.7-0.4,1c-0.2,0.3-0.4,0.6-0.7,0.8c-0.3,0.2-0.6,0.4-0.9,0.5
		l2.7,4.3h-2l-2.5-4h-2.6v4H61.1z M62.9,47.8h3.1c0.3,0,0.5-0.1,0.7-0.2c0.2-0.1,0.4-0.3,0.5-0.5c0.1-0.2,0.3-0.4,0.4-0.7
		s0.1-0.5,0.1-0.8c0-0.3-0.1-0.6-0.2-0.8s-0.2-0.5-0.4-0.7c-0.2-0.2-0.4-0.3-0.6-0.5c-0.2-0.1-0.4-0.2-0.7-0.2h-3V47.8z"/>
	<path class="st0" d="M76.3,53.5c-0.7,0-1.2-0.1-1.8-0.3c-0.5-0.2-1-0.5-1.4-0.9c-0.4-0.4-0.7-0.9-0.9-1.4c-0.2-0.5-0.3-1.1-0.3-1.7
		c0-0.6,0.1-1.1,0.3-1.7c0.2-0.5,0.5-1,0.9-1.4c0.4-0.4,0.8-0.7,1.4-0.9c0.5-0.2,1.1-0.3,1.8-0.3c0.7,0,1.2,0.1,1.8,0.4
		c0.5,0.2,1,0.5,1.4,0.9c0.4,0.4,0.7,0.8,0.9,1.4c0.2,0.5,0.3,1.1,0.3,1.6c0,0.1,0,0.2,0,0.4c0,0.1,0,0.2,0,0.3h-6.7
		c0,0.4,0.1,0.7,0.3,1c0.1,0.3,0.3,0.6,0.6,0.8c0.2,0.2,0.5,0.4,0.8,0.5c0.3,0.1,0.6,0.2,0.9,0.2c0.2,0,0.5,0,0.7-0.1
		c0.2-0.1,0.4-0.1,0.6-0.3c0.2-0.1,0.4-0.2,0.5-0.4c0.1-0.2,0.3-0.3,0.4-0.5l1.5,0.4c-0.3,0.6-0.8,1.1-1.4,1.5
		C78,53.3,77.2,53.5,76.3,53.5z M78.8,48.5c0-0.4-0.1-0.7-0.3-1c-0.1-0.3-0.3-0.6-0.6-0.8c-0.2-0.2-0.5-0.4-0.8-0.5
		c-0.3-0.1-0.6-0.2-0.9-0.2c-0.3,0-0.6,0.1-0.9,0.2c-0.3,0.1-0.6,0.3-0.8,0.5c-0.2,0.2-0.4,0.5-0.5,0.8c-0.1,0.3-0.2,0.6-0.3,1H78.8
		z"/>
	<path class="st0" d="M85.5,53.5c-0.4,0-0.8-0.1-1.1-0.2c-0.3-0.1-0.6-0.3-0.9-0.6c-0.3-0.2-0.4-0.5-0.6-0.8c-0.1-0.3-0.2-0.7-0.2-1
		c0-0.4,0.1-0.8,0.3-1.1c0.2-0.3,0.4-0.6,0.7-0.8s0.7-0.4,1.1-0.5c0.4-0.1,0.9-0.2,1.4-0.2c0.4,0,0.8,0,1.2,0.1
		c0.4,0.1,0.7,0.2,1,0.3v-0.6c0-0.6-0.2-1.1-0.5-1.5c-0.4-0.3-0.9-0.5-1.5-0.5c-0.4,0-0.9,0.1-1.3,0.2c-0.4,0.2-0.9,0.4-1.3,0.7
		l-0.5-1.1c1.1-0.7,2.2-1.1,3.4-1.1c1.2,0,2.1,0.3,2.7,0.9c0.6,0.6,1,1.4,1,2.5v3c0,0.4,0.2,0.6,0.5,0.6v1.5c-0.2,0-0.3,0.1-0.4,0.1
		c-0.1,0-0.2,0-0.4,0c-0.3,0-0.6-0.1-0.8-0.3c-0.2-0.2-0.3-0.4-0.3-0.7l0-0.5c-0.4,0.5-0.8,0.9-1.4,1.1S86.1,53.5,85.5,53.5z
		 M86,52.2c0.4,0,0.8-0.1,1.2-0.2c0.4-0.2,0.7-0.4,0.9-0.6c0.2-0.2,0.3-0.4,0.3-0.6v-1.1c-0.3-0.1-0.6-0.2-1-0.3
		c-0.3-0.1-0.7-0.1-1-0.1c-0.6,0-1.1,0.1-1.5,0.4c-0.4,0.3-0.6,0.6-0.6,1.1c0,0.4,0.2,0.8,0.5,1.1C85.1,52.1,85.5,52.2,86,52.2z"/>
	<path class="st0" d="M93.5,41.7h1.8V51c0,0.3,0.1,0.6,0.2,0.7c0.2,0.2,0.4,0.3,0.7,0.3c0.1,0,0.3,0,0.4-0.1c0.2,0,0.3-0.1,0.4-0.1
		l0.3,1.4c-0.3,0.1-0.6,0.2-0.9,0.3c-0.4,0.1-0.7,0.1-0.9,0.1c-0.6,0-1.1-0.2-1.4-0.5c-0.3-0.3-0.5-0.8-0.5-1.4V41.7z"/>
	<path class="st0" d="M107.6,51.8v1.6h-7.8V42h7.7v1.6h-5.9v3.2h5.1v1.5h-5.1v3.5H107.6z"/>
	<path class="st0" d="M113.4,53.5c-0.7,0-1.3-0.1-2-0.3c-0.7-0.2-1.2-0.5-1.7-0.9l0.7-1.1c0.5,0.4,1,0.6,1.5,0.8
		c0.5,0.2,1,0.3,1.5,0.3c0.5,0,0.9-0.1,1.2-0.3c0.3-0.2,0.5-0.5,0.5-0.9c0-0.4-0.2-0.6-0.5-0.8c-0.3-0.2-0.9-0.3-1.6-0.5
		c-0.5-0.1-1-0.3-1.3-0.4c-0.4-0.1-0.7-0.3-0.9-0.5c-0.2-0.2-0.4-0.4-0.5-0.6c-0.1-0.2-0.2-0.5-0.2-0.8c0-0.4,0.1-0.8,0.2-1.1
		c0.2-0.3,0.4-0.6,0.7-0.8c0.3-0.2,0.6-0.4,1-0.5c0.4-0.1,0.8-0.2,1.3-0.2c0.6,0,1.2,0.1,1.8,0.3c0.5,0.2,1,0.5,1.5,0.8l-0.8,1.1
		c-0.8-0.6-1.6-0.9-2.5-0.9c-0.5,0-0.8,0.1-1.1,0.3c-0.3,0.2-0.5,0.5-0.5,0.9c0,0.2,0,0.3,0.1,0.4c0.1,0.1,0.2,0.2,0.3,0.3
		c0.1,0.1,0.3,0.2,0.6,0.2c0.2,0.1,0.5,0.1,0.9,0.2c0.6,0.1,1.1,0.3,1.5,0.4c0.4,0.1,0.8,0.3,1,0.5c0.3,0.2,0.5,0.4,0.6,0.7
		c0.1,0.3,0.2,0.6,0.2,0.9c0,0.8-0.3,1.4-0.9,1.9C115.2,53.3,114.4,53.5,113.4,53.5z"/>
	<path class="st0" d="M124.2,52.9c-0.2,0.1-0.5,0.2-0.9,0.4s-0.8,0.2-1.3,0.2c-0.3,0-0.5,0-0.8-0.1c-0.2-0.1-0.5-0.2-0.7-0.3
		c-0.2-0.1-0.3-0.3-0.4-0.6c-0.1-0.2-0.2-0.5-0.2-0.9v-5.2h-1.1V45h1.1v-2.8h1.8V45h1.8v1.4h-1.8V51c0,0.3,0.1,0.5,0.3,0.7
		c0.2,0.1,0.4,0.2,0.6,0.2c0.2,0,0.5,0,0.7-0.1c0.2-0.1,0.4-0.2,0.5-0.2L124.2,52.9z"/>
	<path class="st0" d="M128.8,53.5c-0.4,0-0.8-0.1-1.1-0.2c-0.3-0.1-0.6-0.3-0.9-0.6c-0.3-0.2-0.4-0.5-0.6-0.8
		c-0.1-0.3-0.2-0.7-0.2-1c0-0.4,0.1-0.8,0.3-1.1c0.2-0.3,0.4-0.6,0.7-0.8s0.7-0.4,1.1-0.5c0.4-0.1,0.9-0.2,1.4-0.2
		c0.4,0,0.8,0,1.2,0.1c0.4,0.1,0.7,0.2,1,0.3v-0.6c0-0.6-0.2-1.1-0.5-1.5c-0.4-0.3-0.9-0.5-1.5-0.5c-0.4,0-0.9,0.1-1.3,0.2
		c-0.4,0.2-0.9,0.4-1.3,0.7l-0.5-1.1c1.1-0.7,2.2-1.1,3.4-1.1c1.2,0,2.1,0.3,2.7,0.9c0.6,0.6,1,1.4,1,2.5v3c0,0.4,0.2,0.6,0.5,0.6
		v1.5c-0.2,0-0.3,0.1-0.4,0.1c-0.1,0-0.2,0-0.4,0c-0.3,0-0.6-0.1-0.8-0.3c-0.2-0.2-0.3-0.4-0.3-0.7l0-0.5c-0.4,0.5-0.8,0.9-1.4,1.1
		S129.4,53.5,128.8,53.5z M129.3,52.2c0.4,0,0.8-0.1,1.2-0.2c0.4-0.2,0.7-0.4,0.9-0.6c0.2-0.2,0.3-0.4,0.3-0.6v-1.1
		c-0.3-0.1-0.6-0.2-1-0.3c-0.3-0.1-0.7-0.1-1-0.1c-0.6,0-1.1,0.1-1.5,0.4c-0.4,0.3-0.6,0.6-0.6,1.1c0,0.4,0.2,0.8,0.5,1.1
		C128.4,52.1,128.8,52.2,129.3,52.2z"/>
	<path class="st0" d="M141.4,52.9c-0.2,0.1-0.5,0.2-0.9,0.4c-0.4,0.1-0.8,0.2-1.3,0.2c-0.3,0-0.5,0-0.8-0.1
		c-0.2-0.1-0.5-0.2-0.7-0.3c-0.2-0.1-0.3-0.3-0.4-0.6c-0.1-0.2-0.2-0.5-0.2-0.9v-5.2h-1.1V45h1.1v-2.8h1.8V45h1.8v1.4H139V51
		c0,0.3,0.1,0.5,0.3,0.7c0.2,0.1,0.4,0.2,0.6,0.2c0.2,0,0.5,0,0.7-0.1c0.2-0.1,0.4-0.2,0.5-0.2L141.4,52.9z"/>
	<path class="st0" d="M147.5,53.5c-0.7,0-1.2-0.1-1.8-0.3c-0.5-0.2-1-0.5-1.4-0.9c-0.4-0.4-0.7-0.9-0.9-1.4
		c-0.2-0.5-0.3-1.1-0.3-1.7c0-0.6,0.1-1.1,0.3-1.7c0.2-0.5,0.5-1,0.9-1.4c0.4-0.4,0.8-0.7,1.4-0.9c0.5-0.2,1.1-0.3,1.8-0.3
		c0.7,0,1.2,0.1,1.8,0.4c0.5,0.2,1,0.5,1.4,0.9c0.4,0.4,0.7,0.8,0.9,1.4c0.2,0.5,0.3,1.1,0.3,1.6c0,0.1,0,0.2,0,0.4
		c0,0.1,0,0.2,0,0.3H145c0,0.4,0.1,0.7,0.3,1c0.1,0.3,0.3,0.6,0.6,0.8c0.2,0.2,0.5,0.4,0.8,0.5c0.3,0.1,0.6,0.2,0.9,0.2
		c0.2,0,0.5,0,0.7-0.1c0.2-0.1,0.4-0.1,0.6-0.3c0.2-0.1,0.4-0.2,0.5-0.4c0.1-0.2,0.3-0.3,0.4-0.5l1.5,0.4c-0.3,0.6-0.8,1.1-1.4,1.5
		C149.1,53.3,148.3,53.5,147.5,53.5z M150,48.5c0-0.4-0.1-0.7-0.3-1c-0.1-0.3-0.3-0.6-0.6-0.8c-0.2-0.2-0.5-0.4-0.8-0.5
		c-0.3-0.1-0.6-0.2-0.9-0.2c-0.3,0-0.6,0.1-0.9,0.2c-0.3,0.1-0.6,0.3-0.8,0.5c-0.2,0.2-0.4,0.5-0.5,0.8c-0.1,0.3-0.2,0.6-0.3,1H150z
		"/>
	<path class="st0" d="M159.1,47.6c0-0.7,0.1-1.4,0.4-2s0.6-1.3,1.1-1.8c0.5-0.5,1.1-1,1.7-1.3c0.7-0.3,1.5-0.5,2.3-0.5
		c1,0,1.9,0.2,2.7,0.7c0.7,0.5,1.3,1.1,1.7,1.8l-1.4,0.9c-0.2-0.3-0.4-0.6-0.6-0.9c-0.2-0.2-0.5-0.4-0.7-0.6
		c-0.3-0.1-0.5-0.2-0.8-0.3c-0.3-0.1-0.6-0.1-0.8-0.1c-0.6,0-1.1,0.1-1.6,0.4c-0.5,0.2-0.8,0.6-1.1,1s-0.5,0.8-0.7,1.3
		c-0.2,0.5-0.2,1-0.2,1.5c0,0.6,0.1,1.1,0.3,1.6c0.2,0.5,0.4,0.9,0.8,1.3c0.3,0.4,0.7,0.7,1.2,0.9c0.5,0.2,0.9,0.3,1.5,0.3
		c0.3,0,0.6,0,0.9-0.1c0.3-0.1,0.6-0.2,0.9-0.3c0.3-0.2,0.5-0.4,0.8-0.6c0.2-0.2,0.4-0.5,0.6-0.9l1.5,0.9c-0.2,0.4-0.4,0.8-0.8,1.1
		c-0.3,0.3-0.7,0.6-1.1,0.8c-0.4,0.2-0.9,0.4-1.3,0.5c-0.5,0.1-0.9,0.2-1.4,0.2c-0.8,0-1.5-0.2-2.2-0.5c-0.7-0.3-1.2-0.8-1.7-1.3
		c-0.5-0.6-0.9-1.2-1.1-1.9C159.2,49,159.1,48.3,159.1,47.6z"/>
	<path class="st0" d="M175.5,53.5c-0.7,0-1.3-0.1-1.8-0.4c-0.5-0.2-1-0.6-1.4-0.9c-0.4-0.4-0.7-0.9-0.9-1.4
		c-0.2-0.5-0.3-1.1-0.3-1.7s0.1-1.1,0.3-1.7c0.2-0.5,0.5-1,0.9-1.4s0.8-0.7,1.4-0.9c0.5-0.2,1.1-0.4,1.8-0.4c0.7,0,1.2,0.1,1.8,0.4
		c0.5,0.2,1,0.6,1.4,0.9s0.7,0.9,0.9,1.4c0.2,0.5,0.3,1.1,0.3,1.7s-0.1,1.1-0.3,1.7c-0.2,0.5-0.5,1-0.9,1.4s-0.8,0.7-1.4,0.9
		C176.8,53.4,176.2,53.5,175.5,53.5z M173,49.2c0,0.4,0.1,0.8,0.2,1.1c0.1,0.3,0.3,0.6,0.5,0.9c0.2,0.3,0.5,0.4,0.8,0.6
		c0.3,0.1,0.6,0.2,1,0.2c0.4,0,0.7-0.1,1-0.2c0.3-0.1,0.6-0.3,0.8-0.6c0.2-0.3,0.4-0.6,0.5-0.9c0.1-0.3,0.2-0.7,0.2-1.1
		c0-0.4-0.1-0.8-0.2-1.1c-0.1-0.3-0.3-0.7-0.5-0.9c-0.2-0.3-0.5-0.5-0.8-0.6c-0.3-0.1-0.6-0.2-1-0.2c-0.3,0-0.7,0.1-1,0.2
		c-0.3,0.2-0.6,0.4-0.8,0.6c-0.2,0.3-0.4,0.6-0.5,0.9C173.1,48.4,173,48.8,173,49.2z"/>
	<path class="st0" d="M182.5,53.4v-2.1h1.5v2.1H182.5z"/>
</g>
<g>
	<polygon class="st0" points="52.4,38 27.1,25.6 27.1,19.7 52.4,32.1 	"/>
	<polygon class="st0" points="1.9,38 27.1,25.6 27.1,19.7 1.9,32.1 	"/>
	<polygon class="st1" points="52.4,46 27.1,33.7 27.1,27.7 52.4,40.1 	"/>
	<polygon class="st0" points="52.4,54.1 27.1,41.7 27.1,35.8 52.4,48.2 	"/>
	<g>
		<polygon class="st1" points="27.1,17.4 27.1,17.7 32.9,20.5 52.4,11 52.4,5 		"/>
		<g>
			<polygon class="st1" points="43.2,25.6 49.3,28.6 52.4,27.1 52.4,21.1 			"/>
		</g>
		<g>
			<polygon class="st1" points="35,21.6 41.1,24.6 52.4,19 52.4,13.1 			"/>
		</g>
	</g>
	<polygon class="st0" points="16.4,20.5 10.7,17.7 10.7,28 16.4,30.8 	"/>
	<polygon class="st0" points="1.9,40 1.9,51.4 7.6,54.1 7.6,37.2 	"/>
</g>
</svg>
