<?xml version="1.0" encoding="utf-8"?>
<!-- Generator: Adobe Illustrator 21.0.2, SVG Export Plug-In . SVG Version: 6.00 Build 0)  -->
<svg version="1.1" id="Layer_1" xmlns="http://www.w3.org/2000/svg" xmlns:xlink="http://www.w3.org/1999/xlink" x="0px" y="0px"
	 viewBox="0 0 140 60" style="enable-background:new 0 0 140 60;" xml:space="preserve">
<style type="text/css">
	.st0{fill:#FFFFFF;}
	.st1{fill:#00C0FF;}
	.st2{fill:#222222;}
</style>
<g>
	<g>
		<path class="st2" d="M45,31.9V9.7h9.5c1,0,1.9,0.2,2.7,0.6c0.8,0.4,1.5,1,2.1,1.6c0.6,0.7,1.1,1.4,1.4,2.3
			c0.3,0.9,0.5,1.7,0.5,2.6c0,0.8-0.1,1.5-0.3,2.2c-0.2,0.7-0.5,1.3-0.9,1.9c-0.4,0.6-0.8,1.1-1.4,1.5c-0.5,0.4-1.1,0.7-1.8,1
			l5.2,8.4h-3.9l-4.8-7.7h-5.1v7.7H45z M48.4,21.1h6.1c0.5,0,0.9-0.1,1.3-0.3c0.4-0.2,0.7-0.5,1-0.9c0.3-0.4,0.5-0.8,0.7-1.3
			s0.2-1,0.2-1.6c0-0.6-0.1-1.1-0.3-1.6c-0.2-0.5-0.5-0.9-0.8-1.3c-0.3-0.4-0.7-0.7-1.1-0.9c-0.4-0.2-0.9-0.3-1.3-0.3h-5.9V21.1z"/>
		<path class="st2" d="M80.4,28.8v3.1h-15V9.7h14.8v3.1H68.8v6.3h9.8v2.9h-9.8v6.8H80.4z"/>
		<path class="st2" d="M85.4,9.7L92,27.5l6.6-17.8h3.7l-8.8,22.2h-3L81.7,9.7H85.4z"/>
		<path class="st2" d="M120,28.8v3.1h-15V9.7h14.8v3.1h-11.3v6.3h9.8v2.9h-9.8v6.8H120z"/>
		<path class="st2" d="M123.6,31.9V9.7h3.5v19.1h11.8v3.1H123.6z"/>
	</g>
</g>
<g>
	<g>
		<path class="st2" d="M45.9,48.9v-9.3h3.8c0.4,0,0.8,0.1,1.1,0.3c0.3,0.2,0.6,0.4,0.9,0.7c0.2,0.3,0.4,0.6,0.6,1
			c0.1,0.4,0.2,0.7,0.2,1.1c0,0.3,0,0.6-0.1,0.9c-0.1,0.3-0.2,0.6-0.3,0.8c-0.1,0.2-0.3,0.5-0.5,0.6c-0.2,0.2-0.4,0.3-0.7,0.4l2,3.5
			h-1.6l-1.9-3.2h-2v3.2H45.9z M47.3,44.4h2.4c0.2,0,0.4,0,0.5-0.1c0.2-0.1,0.3-0.2,0.4-0.4c0.1-0.2,0.2-0.3,0.3-0.6
			c0.1-0.2,0.1-0.4,0.1-0.7c0-0.2,0-0.5-0.1-0.7c-0.1-0.2-0.2-0.4-0.3-0.5c-0.1-0.2-0.3-0.3-0.4-0.4c-0.2-0.1-0.3-0.1-0.5-0.1h-2.3
			V44.4z"/>
		<path class="st2" d="M57.5,49c-0.5,0-1-0.1-1.4-0.3c-0.4-0.2-0.8-0.4-1-0.8c-0.3-0.3-0.5-0.7-0.7-1.1c-0.2-0.4-0.2-0.9-0.2-1.4
			c0-0.5,0.1-0.9,0.2-1.4c0.2-0.4,0.4-0.8,0.7-1.1c0.3-0.3,0.6-0.6,1-0.8c0.4-0.2,0.9-0.3,1.4-0.3c0.5,0,1,0.1,1.4,0.3
			c0.4,0.2,0.7,0.4,1,0.8c0.3,0.3,0.5,0.7,0.7,1.1c0.2,0.4,0.2,0.9,0.2,1.3c0,0.1,0,0.2,0,0.3c0,0.1,0,0.2,0,0.2h-5.1
			c0,0.3,0.1,0.6,0.2,0.8c0.1,0.2,0.3,0.5,0.4,0.6c0.2,0.2,0.4,0.3,0.6,0.4c0.2,0.1,0.5,0.1,0.7,0.1c0.2,0,0.4,0,0.5-0.1
			c0.2,0,0.3-0.1,0.5-0.2c0.1-0.1,0.3-0.2,0.4-0.3c0.1-0.1,0.2-0.3,0.3-0.4l1.2,0.4c-0.2,0.5-0.6,0.9-1.1,1.3
			C58.8,48.9,58.2,49,57.5,49z M59.4,45c0-0.3-0.1-0.6-0.2-0.8c-0.1-0.2-0.3-0.4-0.4-0.6c-0.2-0.2-0.4-0.3-0.6-0.4
			C58,43.1,57.8,43,57.5,43c-0.3,0-0.5,0-0.7,0.1c-0.2,0.1-0.4,0.2-0.6,0.4c-0.2,0.2-0.3,0.4-0.4,0.6c-0.1,0.2-0.2,0.5-0.2,0.8H59.4
			z"/>
		<path class="st2" d="M64.5,49c-0.3,0-0.6-0.1-0.9-0.2c-0.3-0.1-0.5-0.3-0.7-0.4c-0.2-0.2-0.3-0.4-0.5-0.7
			c-0.1-0.3-0.2-0.5-0.2-0.8c0-0.3,0.1-0.6,0.2-0.9c0.1-0.3,0.3-0.5,0.6-0.7c0.2-0.2,0.5-0.3,0.9-0.4c0.3-0.1,0.7-0.2,1.1-0.2
			c0.3,0,0.6,0,0.9,0.1c0.3,0.1,0.6,0.1,0.8,0.2v-0.5c0-0.5-0.1-0.9-0.4-1.2c-0.3-0.3-0.7-0.4-1.2-0.4c-0.3,0-0.7,0.1-1,0.2
			c-0.3,0.1-0.7,0.3-1,0.6l-0.4-0.9c0.8-0.6,1.7-0.9,2.6-0.9c0.9,0,1.6,0.2,2.1,0.7c0.5,0.5,0.7,1.2,0.7,2.1v2.5
			c0,0.3,0.1,0.5,0.4,0.5v1.2c-0.1,0-0.2,0-0.3,0.1c-0.1,0-0.2,0-0.3,0c-0.3,0-0.5-0.1-0.6-0.2c-0.1-0.1-0.2-0.3-0.3-0.5l0-0.4
			c-0.3,0.4-0.6,0.7-1.1,0.9S65,49,64.5,49z M64.9,48c0.3,0,0.6-0.1,0.9-0.2c0.3-0.1,0.5-0.3,0.7-0.5c0.2-0.2,0.3-0.3,0.3-0.5v-0.9
			c-0.2-0.1-0.5-0.2-0.7-0.2c-0.3-0.1-0.5-0.1-0.8-0.1c-0.5,0-0.9,0.1-1.2,0.3c-0.3,0.2-0.5,0.5-0.5,0.9c0,0.3,0.1,0.6,0.4,0.9
			C64.2,47.9,64.5,48,64.9,48z"/>
		<path class="st2" d="M70.7,39.4H72v7.5c0,0.3,0.1,0.4,0.2,0.6c0.1,0.1,0.3,0.2,0.5,0.2c0.1,0,0.2,0,0.3-0.1s0.2-0.1,0.3-0.1
			l0.2,1.1c-0.2,0.1-0.4,0.2-0.7,0.2C72.6,49,72.3,49,72.1,49c-0.5,0-0.8-0.1-1.1-0.4c-0.3-0.3-0.4-0.7-0.4-1.1V39.4z"/>
		<path class="st2" d="M81.4,47.6v1.3h-6v-9.3h5.9v1.3h-4.5v2.6h3.9v1.2h-3.9v2.8H81.4z"/>
		<path class="st2" d="M85.8,49c-0.5,0-1-0.1-1.5-0.3c-0.5-0.2-1-0.4-1.3-0.8l0.5-0.9c0.4,0.3,0.8,0.5,1.1,0.7
			c0.4,0.2,0.8,0.2,1.2,0.2c0.4,0,0.7-0.1,1-0.2c0.2-0.2,0.3-0.4,0.3-0.7c0-0.3-0.1-0.5-0.4-0.6c-0.3-0.1-0.7-0.3-1.2-0.4
			c-0.4-0.1-0.7-0.2-1-0.3c-0.3-0.1-0.5-0.2-0.7-0.4c-0.2-0.1-0.3-0.3-0.4-0.5c-0.1-0.2-0.1-0.4-0.1-0.7c0-0.3,0.1-0.7,0.2-0.9
			c0.1-0.3,0.3-0.5,0.5-0.7c0.2-0.2,0.5-0.3,0.8-0.4c0.3-0.1,0.6-0.1,1-0.1c0.5,0,0.9,0.1,1.3,0.2c0.4,0.2,0.8,0.4,1.1,0.7l-0.6,0.9
			C87,43.2,86.4,43,85.7,43c-0.3,0-0.6,0.1-0.9,0.2c-0.2,0.2-0.3,0.4-0.3,0.7c0,0.1,0,0.3,0.1,0.4c0,0.1,0.1,0.2,0.2,0.2
			c0.1,0.1,0.3,0.1,0.4,0.2c0.2,0.1,0.4,0.1,0.7,0.2c0.4,0.1,0.8,0.2,1.1,0.3c0.3,0.1,0.6,0.2,0.8,0.4c0.2,0.2,0.4,0.3,0.5,0.5
			c0.1,0.2,0.1,0.4,0.1,0.7c0,0.7-0.2,1.2-0.7,1.5C87.2,48.9,86.6,49,85.8,49z"/>
		<path class="st2" d="M94.1,48.6c-0.2,0.1-0.4,0.2-0.7,0.3C93,49,92.7,49,92.4,49c-0.2,0-0.4,0-0.6-0.1c-0.2-0.1-0.4-0.2-0.5-0.3
			c-0.1-0.1-0.3-0.3-0.3-0.5c-0.1-0.2-0.1-0.4-0.1-0.7v-4.3H90v-1.1h0.8v-2.2h1.3v2.2h1.4v1.1h-1.4V47c0,0.2,0.1,0.4,0.2,0.5
			c0.1,0.1,0.3,0.2,0.5,0.2c0.2,0,0.4,0,0.5-0.1c0.2-0.1,0.3-0.1,0.4-0.2L94.1,48.6z"/>
		<path class="st2" d="M97.6,49c-0.3,0-0.6-0.1-0.9-0.2c-0.3-0.1-0.5-0.3-0.7-0.4c-0.2-0.2-0.3-0.4-0.5-0.7s-0.2-0.5-0.2-0.8
			c0-0.3,0.1-0.6,0.2-0.9c0.1-0.3,0.3-0.5,0.6-0.7c0.2-0.2,0.5-0.3,0.9-0.4c0.3-0.1,0.7-0.2,1.1-0.2c0.3,0,0.6,0,0.9,0.1
			c0.3,0.1,0.6,0.1,0.8,0.2v-0.5c0-0.5-0.1-0.9-0.4-1.2c-0.3-0.3-0.7-0.4-1.2-0.4c-0.3,0-0.7,0.1-1,0.2c-0.3,0.1-0.7,0.3-1,0.6
			l-0.4-0.9c0.8-0.6,1.7-0.9,2.6-0.9c0.9,0,1.6,0.2,2.1,0.7c0.5,0.5,0.7,1.2,0.7,2.1v2.5c0,0.3,0.1,0.5,0.4,0.5v1.2
			c-0.1,0-0.2,0-0.3,0.1c-0.1,0-0.2,0-0.3,0c-0.3,0-0.5-0.1-0.6-0.2c-0.1-0.1-0.2-0.3-0.3-0.5l0-0.4c-0.3,0.4-0.6,0.7-1.1,0.9
			S98.1,49,97.6,49z M98,48c0.3,0,0.6-0.1,0.9-0.2c0.3-0.1,0.5-0.3,0.7-0.5c0.2-0.2,0.3-0.3,0.3-0.5v-0.9c-0.2-0.1-0.5-0.2-0.7-0.2
			c-0.3-0.1-0.5-0.1-0.8-0.1c-0.5,0-0.9,0.1-1.2,0.3c-0.3,0.2-0.5,0.5-0.5,0.9c0,0.3,0.1,0.6,0.4,0.9C97.3,47.9,97.6,48,98,48z"/>
		<path class="st2" d="M107.3,48.6c-0.2,0.1-0.4,0.2-0.7,0.3s-0.6,0.2-1,0.2c-0.2,0-0.4,0-0.6-0.1c-0.2-0.1-0.4-0.2-0.5-0.3
			c-0.1-0.1-0.3-0.3-0.3-0.5c-0.1-0.2-0.1-0.4-0.1-0.7v-4.3h-0.8v-1.1h0.8v-2.2h1.3v2.2h1.4v1.1h-1.4V47c0,0.2,0.1,0.4,0.2,0.5
			c0.1,0.1,0.3,0.2,0.5,0.2c0.2,0,0.4,0,0.5-0.1c0.2-0.1,0.3-0.1,0.4-0.2L107.3,48.6z"/>
		<path class="st2" d="M111.9,49c-0.5,0-1-0.1-1.4-0.3c-0.4-0.2-0.8-0.4-1-0.8c-0.3-0.3-0.5-0.7-0.7-1.1c-0.2-0.4-0.2-0.9-0.2-1.4
			c0-0.5,0.1-0.9,0.2-1.4c0.2-0.4,0.4-0.8,0.7-1.1c0.3-0.3,0.6-0.6,1-0.8c0.4-0.2,0.9-0.3,1.4-0.3c0.5,0,1,0.1,1.4,0.3
			c0.4,0.2,0.7,0.4,1,0.8c0.3,0.3,0.5,0.7,0.7,1.1c0.2,0.4,0.2,0.9,0.2,1.3c0,0.1,0,0.2,0,0.3c0,0.1,0,0.2,0,0.2H110
			c0,0.3,0.1,0.6,0.2,0.8c0.1,0.2,0.3,0.5,0.4,0.6c0.2,0.2,0.4,0.3,0.6,0.4c0.2,0.1,0.5,0.1,0.7,0.1c0.2,0,0.4,0,0.5-0.1
			c0.2,0,0.3-0.1,0.5-0.2c0.1-0.1,0.3-0.2,0.4-0.3c0.1-0.1,0.2-0.3,0.3-0.4l1.2,0.4c-0.2,0.5-0.6,0.9-1.1,1.3
			C113.1,48.9,112.5,49,111.9,49z M113.8,45c0-0.3-0.1-0.6-0.2-0.8c-0.1-0.2-0.3-0.4-0.4-0.6c-0.2-0.2-0.4-0.3-0.6-0.4
			c-0.2-0.1-0.5-0.1-0.7-0.1c-0.3,0-0.5,0-0.7,0.1c-0.2,0.1-0.4,0.2-0.6,0.4c-0.2,0.2-0.3,0.4-0.4,0.6c-0.1,0.2-0.2,0.5-0.2,0.8
			H113.8z"/>
		<path class="st2" d="M120.7,44.2c0-0.6,0.1-1.1,0.3-1.7c0.2-0.6,0.5-1,0.8-1.5c0.4-0.4,0.8-0.8,1.3-1.1c0.5-0.3,1.1-0.4,1.8-0.4
			c0.8,0,1.5,0.2,2,0.6c0.6,0.4,1,0.9,1.3,1.5l-1.1,0.8c-0.1-0.3-0.3-0.5-0.4-0.7c-0.2-0.2-0.4-0.3-0.6-0.5
			c-0.2-0.1-0.4-0.2-0.6-0.2c-0.2,0-0.4-0.1-0.6-0.1c-0.5,0-0.9,0.1-1.2,0.3c-0.3,0.2-0.6,0.5-0.9,0.8c-0.2,0.3-0.4,0.7-0.5,1.1
			c-0.1,0.4-0.2,0.8-0.2,1.2c0,0.5,0.1,0.9,0.2,1.3c0.1,0.4,0.3,0.8,0.6,1.1c0.2,0.3,0.5,0.6,0.9,0.7c0.3,0.2,0.7,0.3,1.1,0.3
			c0.2,0,0.4,0,0.7-0.1c0.2-0.1,0.4-0.1,0.6-0.3c0.2-0.1,0.4-0.3,0.6-0.5c0.2-0.2,0.3-0.4,0.4-0.7l1.1,0.7c-0.1,0.3-0.3,0.7-0.6,0.9
			c-0.3,0.3-0.5,0.5-0.9,0.7c-0.3,0.2-0.7,0.3-1,0.4c-0.4,0.1-0.7,0.1-1,0.1c-0.6,0-1.2-0.1-1.7-0.4c-0.5-0.3-0.9-0.6-1.3-1.1
			s-0.7-1-0.9-1.5C120.8,45.4,120.7,44.8,120.7,44.2z"/>
		<path class="st2" d="M133.3,49c-0.5,0-1-0.1-1.4-0.3c-0.4-0.2-0.8-0.4-1-0.8c-0.3-0.3-0.5-0.7-0.7-1.1c-0.2-0.4-0.2-0.9-0.2-1.3
			c0-0.5,0.1-0.9,0.2-1.3c0.2-0.4,0.4-0.8,0.7-1.1c0.3-0.3,0.6-0.6,1-0.8c0.4-0.2,0.9-0.3,1.4-0.3s1,0.1,1.4,0.3
			c0.4,0.2,0.8,0.4,1,0.8c0.3,0.3,0.5,0.7,0.7,1.1c0.2,0.4,0.2,0.9,0.2,1.3c0,0.5-0.1,0.9-0.2,1.3c-0.2,0.4-0.4,0.8-0.7,1.1
			s-0.6,0.6-1,0.8C134.3,48.9,133.8,49,133.3,49z M131.4,45.5c0,0.3,0,0.6,0.1,0.9c0.1,0.3,0.2,0.5,0.4,0.7c0.2,0.2,0.4,0.4,0.6,0.5
			c0.2,0.1,0.5,0.2,0.8,0.2c0.3,0,0.5-0.1,0.8-0.2c0.2-0.1,0.4-0.3,0.6-0.5c0.2-0.2,0.3-0.5,0.4-0.7c0.1-0.3,0.1-0.6,0.1-0.9
			c0-0.3,0-0.6-0.1-0.9c-0.1-0.3-0.2-0.5-0.4-0.7c-0.2-0.2-0.4-0.4-0.6-0.5c-0.2-0.1-0.5-0.2-0.8-0.2c-0.3,0-0.5,0.1-0.7,0.2
			c-0.2,0.1-0.4,0.3-0.6,0.5c-0.2,0.2-0.3,0.5-0.4,0.7C131.5,44.9,131.4,45.2,131.4,45.5z"/>
		<path class="st2" d="M138.7,48.9v-1.7h1.1v1.7H138.7z"/>
	</g>
</g>
<polygon class="st2" points="39.2,36.4 19.9,26.4 19.9,21.6 39.2,31.6 "/>
<polygon class="st2" points="0.6,36.4 19.9,26.4 19.9,21.6 0.6,31.6 "/>
<polygon class="st1" points="39.2,43 19.9,32.9 19.9,28.1 39.2,38.1 "/>
<polygon class="st2" points="39.2,49.5 19.9,39.4 19.9,34.6 39.2,44.7 "/>
<g>
	<polygon class="st1" points="19.9,19.7 19.9,20 24.3,22.2 39.2,14.5 39.2,9.7 	"/>
	<g>
		<polygon class="st1" points="32.2,26.4 36.9,28.8 39.2,27.6 39.2,22.7 		"/>
	</g>
	<g>
		<polygon class="st1" points="26,23.1 30.6,25.5 39.2,21 39.2,16.2 		"/>
	</g>
</g>
<polygon class="st2" points="11.7,22.2 7.4,20 7.4,28.3 11.7,30.5 "/>
<polygon class="st2" points="0.6,38.1 0.6,47.3 5,49.5 5,35.8 "/>
</svg>
